<svg version="1.1" class="clearos-svg clearfoundation app-vendor-clearfoundation app-free app-category-network app-sub-category-vpn" viewBox="0 0 400 400" preserveAspectRatio="xMinYMin" xmlns="http://www.w3.org/2000/svg" xmlns:xlink= "http://www.w3.org/1999/xlink">
<path fill="#AA0707" d="M91.666,184.647"/>
<path fill="#AA0707" d="M123.245,247.805"/>
<path fill="#AA0707" d="M91.666,184.647"/>
<path fill="#AA0707" d="M123.245,247.805"/>
<g>
	<path fill="#686868" d="M100.762,234.94c-9.443,0-18.217-2.785-25.783-7.34c-15.495,29.696-25.513,62.59-28.633,97.61
		c30.123,36.789,73.139,62.67,122.245,70.5c30.778-14.545,57.595-36.021,78.331-62.558c-5.732-8.043-9.205-17.805-9.205-28.338
		c0-8.024,2.131-15.463,5.537-22.112c-29.189-28.664-63.188-52.548-100.642-70.236C133.62,225.946,118.238,234.94,100.762,234.94z"
		/>
	<path fill="#686868" d="M285.334,256.022c4.783-17.902,7.602-36.627,7.602-56.038c0-32.711-7.453-63.604-20.492-91.418
		c-8.764,12.146-23.537,20.131-40.313,20.131c-15.027,0-28.313-6.544-37.306-16.593c-21,10.033-40.492,22.646-57.953,37.625
		c7.469,7.731,12.276,17.879,13.587,29.157c44.015,19.853,83.834,47.306,117.691,80.854
		C273.508,257.579,279.289,256.202,285.334,256.022z"/>
	<path fill="#686868" d="M22.028,287.718c6.372-29.977,17.462-58.115,32.253-83.906c-2.449-5.905-3.841-12.375-3.841-19.189
		c0-0.524,0.131-1.041,0.146-1.523c-15.595-2.801-31.5-4.668-47.699-5.438c-0.804,7.33-1.376,14.742-1.376,22.343
		C1.514,231.483,8.924,261.247,22.028,287.718z"/>
	<path fill="#686868" d="M100.762,134.3c2.801,0,5.503,0.368,8.182,0.819c21.974-20.442,47.052-37.47,74.514-50.402
		c-0.032-0.721-0.254-1.409-0.254-2.146c0-21.45,15.635-39.354,36.658-44.481c-15.322-13.604-32.547-25.013-51.302-33.866
		C92.474,16.33,30.867,71.605,9.581,144.162c18.338,1.073,36.35,3.391,53.94,6.863C72.75,140.828,85.938,134.3,100.762,134.3z"/>
	<path fill="#686868" d="M286.66,353.729c-7.469,0-14.545-1.804-20.9-4.849c-14.742,18.738-32.139,35.283-51.729,48.91
		c34.234-2.424,66.013-13.627,93.271-31.123c-2.752-4.944-5.569-9.795-8.551-14.578C294.852,353.042,290.854,353.729,286.66,353.729
		z"/>
	<path fill="#686868" d="M398.488,200.001c0-39.214-11.449-75.767-31.072-106.529c-19.23-4.496-39.215-7.109-59.806-7.109
		c-6.224,0-12.302,0.5-18.46,0.958c17.887,33.646,28.256,71.901,28.256,112.697c0,21.326-3.063,41.934-8.256,61.622
		c15.645,8.19,26.404,24.342,26.404,43.18c0,10.481-3.374,20.146-8.978,28.106c2.653,4.261,5.191,8.584,7.699,12.941
		C373.705,309.634,398.488,257.741,398.488,200.001z"/>
	<path fill="#686868" d="M262.154,46.371c4.652,3.44,8.486,7.699,11.533,12.465c11.17-1.294,22.438-2.129,33.923-2.129
		c10.482,0,20.836,0.606,31.073,1.695C305.989,26.478,262.451,5.601,213.98,2.209C231.967,14.741,248.217,29.532,262.154,46.371z"/>
</g>
</svg>
